<?xml version="1.0" encoding="UTF-8" standalone="no"?>
<svg
   xmlns:dc="http://purl.org/dc/elements/1.1/"
   xmlns:cc="http://creativecommons.org/ns#"
   xmlns:rdf="http://www.w3.org/1999/02/22-rdf-syntax-ns#"
   xmlns:svg="http://www.w3.org/2000/svg"
   xmlns="http://www.w3.org/2000/svg"
   xmlns:sodipodi="http://sodipodi.sourceforge.net/DTD/sodipodi-0.dtd"
   xmlns:inkscape="http://www.inkscape.org/namespaces/inkscape"
   sodipodi:docname="mewe.svg"
   inkscape:version="1.0beta2 (unknown)"
   id="svg8"
   version="1.1"
   viewBox="0 0 264.58333 264.58334"
   height="1000"
   width="1000">
  <defs
     id="defs2" />
  <sodipodi:namedview
     inkscape:window-maximized="1"
     inkscape:window-y="27"
     inkscape:window-x="0"
     inkscape:window-height="2096"
     inkscape:window-width="3840"
     units="px"
     showgrid="false"
     inkscape:document-rotation="0"
     inkscape:current-layer="layer1"
     inkscape:document-units="mm"
     inkscape:cy="727.26996"
     inkscape:cx="606.79589"
     inkscape:zoom="0.98994949"
     inkscape:pageshadow="2"
     inkscape:pageopacity="0.0"
     borderopacity="1.0"
     bordercolor="#666666"
     pagecolor="#ffffff"
     id="base" />
  <metadata
     id="metadata5">
    <rdf:RDF>
      <cc:Work
         rdf:about="">
        <dc:format>image/svg+xml</dc:format>
        <dc:type
           rdf:resource="http://purl.org/dc/dcmitype/StillImage" />
        <dc:title></dc:title>
      </cc:Work>
    </rdf:RDF>
  </metadata>
  <g
     id="layer1"
     inkscape:groupmode="layer"
     inkscape:label="Layer 1">
    <g
       transform="matrix(1.2172448,0,0,1.2172448,-28.890182,-27.102394)"
       id="g961">
      <circle
         style="fill:#17367f;fill-opacity:1;stroke-width:0.274083;stop-color:#000000"
         id="path861"
         cx="52.352295"
         cy="93.098801"
         r="7.080121" />
      <circle
         r="7.080121"
         cy="93.098801"
         cx="123.37549"
         id="circle863"
         style="fill:#df2d90;fill-opacity:1;stroke-width:0.274083;stop-color:#000000" />
      <circle
         style="fill:#f88208;fill-opacity:1;stroke-width:0.274083;stop-color:#000000"
         id="circle865"
         cx="163.3054"
         cy="93.098801"
         r="7.080121" />
      <circle
         r="7.080121"
         cy="93.098801"
         cx="203.11693"
         id="circle867"
         style="fill:#027aaa;fill-opacity:1;stroke-width:0.274083;stop-color:#000000" />
      <path
         d="m 24.916021,112.25286 c 0,-2.67522 2.124429,-4.8791 4.879087,-4.8791 h 1.022251 c 2.124215,0 3.544303,1.10102 4.481501,2.59581 l 16.670681,26.11089 16.755867,-26.19045 c 1.022251,-1.65297 2.442365,-2.51625 4.396276,-2.51625 h 1.02225 c 2.754778,0 4.879072,2.19831 4.879072,4.8791 v 46.0815 c 0.0069,2.68485 -2.1947,4.85064 -4.879072,4.79968 -2.635443,-0.0367 -4.762983,-2.16424 -4.799571,-4.79968 V 125.30545 L 55.905598,145.5203 c -1.022251,1.56718 -2.283337,2.51625 -4.089574,2.51625 -1.72663,0 -2.987662,-0.94827 -4.01006,-2.51625 L 34.435358,125.47001 v 32.94949 c 0,2.67535 -2.124215,4.71454 -4.799571,4.71454 -2.623667,0.0488 -4.763209,-2.09087 -4.71436,-4.71454 v -46.16664 z"
         id="path893"
         inkscape:connector-curvature="0"
         style="fill:#16387d;fill-opacity:1;stroke-width:5.67995"
         sodipodi:nodetypes="csscccssscccccsccscccc" />
      <path
         sodipodi:nodetypes="ccscccsscccscccsscccsscc"
         style="fill:#067aa0;fill-opacity:1;stroke-width:5.67995"
         inkscape:connector-curvature="0"
         id="path925"
         d="m 123.60155,113.86081 c -0.24968,-0.59977 -0.38274,-1.24163 -0.39206,-1.89123 0,-2.67536 2.28336,-4.71428 4.95292,-4.71428 2.35719,0 4.17479,1.49413 4.79958,3.54421 l 12.66628,37.82845 12.42208,-37.66948 c 0.78957,-2.28329 2.43103,-3.85086 4.87908,-3.85086 h 0.70429 c 2.43104,0 4.17476,1.57779 4.87908,3.85086 l 12.42207,37.66948 12.66631,-37.91358 c 0.71572,-1.96428 2.35718,-3.45908 4.71437,-3.45908 2.59574,0 4.79956,2.05007 4.79956,4.64043 -0.0334,0.67841 -0.19334,1.3446 -0.47147,1.96428 l -16.28447,45.62131 c -0.8634,2.44241 -2.67523,4.01012 -5.03812,4.01012 h -0.93725 c -2.35718,0 -4.09526,-1.49413 -4.95293,-4.01012 l -12.27439,-35.94266 -12.2687,35.94266 c -0.86341,2.51625 -2.66957,4.01012 -5.03811,4.01012 h -0.93726 c -2.35718,0 -4.08957,-1.49413 -5.03811,-4.01012 z" />
      <path
         inkscape:connector-curvature="0"
         id="path927"
         style="fill:#16387d;fill-opacity:1;stroke:none;stroke-width:0.999999px;stroke-linecap:butt;stroke-linejoin:miter;stroke-opacity:1"
         d="m 398.69727,455.13867 c -55.57585,0 -75.53125,49.18898 -75.53125,81.05274 0,22.82199 9.83125,80.29101 79.89843,80.29101 36.38404,0 52.24379,-17.92933 56.23633,-21.92187 3.99258,-3.99254 4.4456,-13.29753 -0.375,-17.88282 -5.59491,-5.32161 -13.04019,-5.15515 -18.23633,-1.4082 -5.19609,3.74691 -16.56997,13.69727 -37.24414,13.69727 -27.7586,-1.604 -45.83782,-14.91972 -46.16406,-41.22852 h 101.27539 c 12.80568,0 13.5,-15.7334 13.5,-21.27344 0,-4.38833 -6.7878,-71.32617 -73.35937,-71.32617 z m -0.43946,27.25977 c 39.60605,0 39.35742,43.22851 39.35742,43.22851 h -80.41015 c 0,0 1.44676,-43.22851 41.05273,-43.22851 z"
         transform="scale(0.26458333)" />
      <path
         d="m 221.64315,120.4221 c -14.70444,0 -19.98431,13.01459 -19.98431,21.44521 0,6.03832 2.60119,21.24366 21.1398,21.24366 9.62661,0 13.82283,-4.7438 14.87919,-5.80016 1.05637,-1.05636 1.17623,-3.5183 -0.0992,-4.7315 -1.48032,-1.40801 -3.45021,-1.36396 -4.82503,-0.37258 -1.3748,0.99137 -4.38413,3.62407 -9.85418,3.62407 -7.34446,-0.42439 -12.12792,-3.94751 -12.21424,-10.90838 h 26.79578 c 3.38817,0 3.57188,-4.1628 3.57188,-5.6286 0,-1.16108 -1.79594,-18.87172 -19.40967,-18.87172 z m -0.11627,7.21249 c 10.4791,0 10.41332,11.43754 10.41332,11.43754 h -21.27519 c 0,0 0.38279,-11.43754 10.86187,-11.43754 z"
         style="fill:#067aa0;fill-opacity:1;stroke:none;stroke-width:0.264583px;stroke-linecap:butt;stroke-linejoin:miter;stroke-opacity:1"
         id="path951"
         inkscape:connector-curvature="0" />
    </g>
  </g>
</svg>
